<!--?xml version="1.0" standalone="no"?-->
              <svg id="sw-js-blob-svg" viewBox="0 0 100 100" xmlns="http://www.w3.org/2000/svg" version="1.1">
                    <defs> 
                        <linearGradient id="sw-gradient" x1="0" x2="1" y1="1" y2="0">
                            <stop id="stop1" stop-color="rgba(232, 229, 242, 1)" offset="0%"></stop>
                            <stop id="stop2" stop-color="rgba(232, 229, 242, 1)" offset="100%"></stop>
                        </linearGradient>
                    </defs>
                <path fill="url(#sw-gradient)" d="M20.8,-24.8C28.2,-18.5,36.4,-13.2,37.8,-6.5C39.2,0.2,33.8,8.3,28.6,15.7C23.3,23.2,18.4,30.1,10.9,34.9C3.5,39.7,-6.5,42.4,-15.5,40.1C-24.5,37.9,-32.6,30.7,-35.7,22.1C-38.8,13.6,-36.9,3.7,-34.1,-5C-31.4,-13.7,-27.7,-21.2,-21.9,-27.8C-16.1,-34.3,-8,-39.9,-0.7,-39.1C6.7,-38.3,13.3,-31.1,20.8,-24.8Z" width="100%" height="100%" transform="translate(50 50)" stroke-width="0" style="transition: all 0.3s ease 0s;" stroke="url(#sw-gradient)"></path>
              </svg>